<svg xmlns="http://www.w3.org/2000/svg" viewBox="0 0 1920 1920">
  <path fill-rule="evenodd" d="M1031,1103 L1031,1137 L1034,1144 L1037,1147 L1042,1149 L1052,1149 L1057,1147 L1063,1141 L1064,1142 L1064,1148 L1069,1148 L1069,1103 L1064,1103 L1064,1114 L1063,1115 L1064,1130 L1063,1131 L1063,1134 L1061,1138 L1056,1143 L1054,1143 L1053,1144 L1045,1144 L1038,1138 L1037,1136 L1037,1132 L1036,1131 L1036,1103 Z M1498,1103 L1492,1106 L1487,1111 L1484,1117 L1484,1121 L1483,1122 L1483,1130 L1484,1131 L1484,1134 L1486,1139 L1489,1143 L1494,1147 L1496,1147 L1500,1149 L1511,1149 L1518,1146 L1526,1137 L1527,1131 L1528,1130 L1528,1121 L1527,1120 L1527,1117 L1524,1111 L1516,1104 L1510,1103 L1509,1102 Z M1501,1107 L1510,1107 L1514,1109 L1520,1115 L1522,1119 L1522,1132 L1520,1136 L1511,1144 L1500,1144 L1494,1140 L1491,1136 L1489,1131 L1489,1119 L1491,1115 L1497,1109 Z M1403,1105 L1396,1102 L1390,1102 L1382,1105 L1379,1109 L1377,1110 L1376,1109 L1376,1103 L1370,1103 L1370,1148 L1376,1148 L1376,1119 L1377,1118 L1377,1116 L1384,1108 L1386,1108 L1387,1107 L1394,1107 L1398,1109 L1401,1112 L1403,1116 L1403,1148 L1409,1148 L1409,1117 L1408,1116 L1408,1112 L1406,1108 Z M1320,1102 L1310,1106 L1304,1113 L1304,1115 L1302,1119 L1302,1133 L1305,1140 L1311,1146 L1318,1149 L1329,1149 L1330,1148 L1333,1148 L1338,1145 L1342,1140 L1343,1137 L1337,1136 L1335,1140 L1329,1144 L1318,1144 L1313,1141 L1309,1136 L1307,1128 L1309,1126 L1344,1126 L1344,1121 L1343,1120 L1343,1116 L1341,1111 L1336,1106 L1330,1103 Z M1308,1118 L1309,1117 L1309,1115 L1315,1109 L1319,1107 L1327,1107 L1328,1108 L1330,1108 L1337,1115 L1338,1121 L1337,1122 L1309,1122 L1308,1121 Z M1209,1103 L1209,1148 L1215,1148 L1215,1118 L1217,1113 L1222,1108 L1224,1108 L1225,1107 L1231,1107 L1235,1109 L1239,1115 L1239,1117 L1240,1118 L1240,1148 L1245,1148 L1245,1119 L1246,1118 L1246,1115 L1251,1109 L1255,1107 L1261,1107 L1262,1108 L1264,1108 L1269,1113 L1269,1115 L1270,1116 L1270,1148 L1276,1148 L1276,1118 L1275,1117 L1274,1110 L1269,1104 L1264,1103 L1263,1102 L1253,1103 L1251,1104 L1245,1111 L1240,1105 L1233,1102 L1224,1103 L1216,1110 L1215,1109 L1215,1103 Z M1152,1105 L1147,1110 L1146,1114 L1152,1114 L1153,1112 L1159,1107 L1169,1107 L1174,1111 L1176,1115 L1176,1119 L1172,1122 L1158,1123 L1157,1124 L1151,1125 L1146,1130 L1146,1132 L1145,1133 L1145,1140 L1146,1141 L1146,1143 L1150,1147 L1155,1149 L1165,1149 L1171,1146 L1175,1142 L1176,1143 L1176,1148 L1182,1148 L1182,1118 L1181,1117 L1181,1112 L1179,1108 L1176,1105 L1171,1103 L1168,1103 L1167,1102 L1160,1102 Z M1176,1126 L1176,1135 L1173,1140 L1168,1144 L1166,1144 L1165,1145 L1157,1145 L1151,1140 L1151,1133 L1154,1129 L1158,1127 L1170,1126 L1171,1125 L1175,1125 Z M1004,1102 L997,1103 L993,1105 L988,1110 L987,1109 L987,1103 L981,1103 L981,1148 L987,1148 L987,1120 L988,1119 L988,1117 L994,1110 L999,1108 L1004,1108 L1005,1107 L1005,1103 Z M931,1102 L923,1105 L920,1107 L916,1112 L913,1119 L913,1133 L916,1140 L922,1146 L930,1149 L940,1149 L947,1146 L953,1140 L954,1136 L953,1135 L948,1135 L947,1138 L943,1142 L939,1144 L930,1144 L926,1142 L921,1137 L918,1129 L918,1122 L919,1121 L920,1116 L925,1110 L931,1107 L938,1107 L943,1109 L947,1113 L948,1116 L954,1115 L952,1110 L945,1104 L943,1104 L939,1102 Z M863,1102 L862,1103 L856,1104 L848,1111 L845,1118 L844,1129 L845,1130 L845,1134 L851,1144 L861,1149 L872,1149 L879,1146 L884,1141 L885,1137 L880,1136 L880,1137 L872,1144 L861,1144 L857,1142 L853,1138 L850,1131 L850,1127 L851,1126 L887,1126 L886,1116 L883,1110 L878,1105 L870,1102 Z M850,1120 L854,1112 L861,1107 L870,1107 L871,1108 L873,1108 L879,1114 L881,1118 L881,1121 L880,1122 L851,1122 Z M1442,1091 L1442,1102 L1441,1103 L1433,1103 L1433,1108 L1441,1108 L1442,1109 L1442,1140 L1445,1146 L1449,1148 L1460,1148 L1460,1143 L1455,1144 L1450,1142 L1447,1136 L1447,1110 L1449,1108 L1460,1108 L1460,1103 L1449,1103 L1447,1101 L1447,1091 Z M1103,1091 L1103,1102 L1102,1103 L1094,1103 L1094,1108 L1102,1108 L1103,1109 L1103,1141 L1107,1147 L1109,1147 L1110,1148 L1121,1148 L1121,1145 L1120,1144 L1115,1144 L1114,1143 L1112,1143 L1109,1140 L1109,1138 L1108,1137 L1108,1109 L1109,1108 L1120,1108 L1121,1105 L1120,1103 L1109,1103 L1108,1102 L1108,1091 Z M775,1085 L774,1086 L774,1148 L780,1148 L780,1123 L782,1121 L798,1121 L800,1123 L804,1132 L806,1134 L813,1148 L820,1148 L814,1136 L812,1134 L807,1124 L805,1122 L806,1120 L813,1117 L818,1111 L818,1109 L819,1108 L819,1098 L817,1093 L812,1088 L805,1085 Z M780,1091 L782,1089 L801,1089 L802,1090 L807,1091 L813,1098 L813,1107 L811,1111 L808,1114 L804,1116 L781,1116 L780,1115 Z M1124,874 L1124,876 L1129,882 L1146,908 L1149,911 L1169,941 L1172,944 L1173,948 L1161,966 L1158,969 L1152,979 L1149,982 L1145,989 L1142,992 L1134,1005 L1131,1008 L1123,1020 L1122,1023 L1158,1023 L1182,987 L1183,984 L1193,970 L1195,971 L1201,980 L1202,983 L1207,989 L1210,995 L1219,1007 L1229,1023 L1265,1023 L1263,1018 L1257,1009 L1254,1006 L1248,996 L1245,993 L1235,977 L1232,974 L1214,947 L1228,926 L1231,923 L1235,916 L1238,913 L1242,906 L1245,903 L1249,896 L1252,893 L1256,886 L1259,883 L1264,874 L1228,874 L1194,925 L1191,922 L1190,919 L1179,903 L1178,900 L1173,894 L1172,891 L1169,888 L1168,885 L1160,874 Z M1539,872 L1525,872 L1524,873 L1520,873 L1519,874 L1511,876 L1502,881 L1493,890 L1489,896 L1487,895 L1487,874 L1456,874 L1456,1023 L1487,1023 L1487,956 L1488,955 L1487,945 L1488,944 L1488,934 L1489,933 L1490,927 L1495,918 L1503,910 L1513,905 L1515,905 L1516,904 L1521,904 L1522,903 L1539,903 Z M1576,884 L1568,892 L1564,898 L1559,911 L1559,914 L1560,915 L1571,915 L1572,916 L1584,916 L1585,917 L1590,917 L1593,909 L1601,901 L1611,897 L1627,897 L1637,901 L1643,906 L1648,916 L1648,928 L1644,931 L1642,931 L1638,933 L1634,933 L1633,934 L1618,935 L1617,936 L1607,936 L1606,937 L1600,937 L1599,938 L1591,939 L1590,940 L1582,942 L1568,950 L1560,959 L1557,965 L1557,967 L1555,971 L1555,975 L1554,976 L1554,987 L1555,988 L1555,993 L1556,994 L1557,999 L1562,1008 L1571,1017 L1580,1022 L1582,1022 L1586,1024 L1589,1024 L1590,1025 L1595,1025 L1596,1026 L1612,1026 L1613,1025 L1617,1025 L1618,1024 L1624,1023 L1632,1019 L1636,1016 L1647,1004 L1648,1005 L1648,1020 L1649,1021 L1649,1023 L1679,1023 L1679,916 L1678,915 L1678,910 L1677,909 L1677,906 L1676,905 L1675,900 L1669,890 L1659,881 L1650,876 L1648,876 L1644,874 L1641,874 L1640,873 L1637,873 L1636,872 L1631,872 L1630,871 L1609,871 L1608,872 L1603,872 L1602,873 L1592,875 Z M1648,953 L1648,972 L1647,973 L1647,976 L1646,977 L1645,982 L1643,984 L1642,987 L1631,997 L1625,1000 L1619,1001 L1618,1002 L1605,1002 L1595,998 L1588,991 L1586,986 L1586,975 L1589,969 L1597,962 L1605,959 L1608,959 L1609,958 L1629,956 L1630,955 L1635,955 L1636,954 L1640,954 L1645,952 L1647,952 Z M1343,871 L1342,872 L1337,872 L1336,873 L1332,873 L1328,875 L1325,875 L1320,878 L1316,879 L1304,887 L1291,901 L1287,909 L1285,911 L1285,913 L1281,921 L1281,924 L1280,925 L1280,928 L1278,933 L1278,941 L1277,942 L1278,963 L1279,964 L1279,968 L1280,969 L1280,972 L1281,973 L1283,981 L1288,991 L1296,1002 L1308,1013 L1323,1021 L1325,1021 L1332,1024 L1344,1025 L1345,1026 L1361,1026 L1362,1025 L1368,1025 L1369,1024 L1376,1023 L1392,1016 L1402,1009 L1413,997 L1417,991 L1424,975 L1424,972 L1426,967 L1426,963 L1427,962 L1427,956 L1428,955 L1428,942 L1427,941 L1427,934 L1425,929 L1425,925 L1424,924 L1422,916 L1414,901 L1400,886 L1391,881 L1389,879 L1377,874 L1374,874 L1369,872 L1363,872 L1362,871 Z M1344,900 L1361,900 L1362,901 L1368,902 L1378,908 L1385,915 L1389,921 L1392,927 L1394,937 L1395,938 L1395,957 L1394,958 L1394,962 L1393,963 L1392,969 L1388,977 L1384,983 L1375,991 L1370,994 L1368,994 L1364,996 L1360,996 L1359,997 L1345,997 L1344,996 L1340,996 L1332,992 L1325,987 L1318,979 L1313,969 L1313,967 L1311,963 L1311,959 L1310,958 L1310,938 L1311,937 L1311,933 L1312,932 L1313,927 L1316,921 L1321,914 L1326,909 L1333,904 Z M1027,872 L1026,873 L1023,873 L1022,874 L1019,874 L1018,875 L1013,876 L999,884 L988,894 L979,907 L975,915 L975,917 L972,924 L972,927 L971,928 L971,932 L970,933 L970,940 L969,941 L969,956 L970,957 L971,969 L972,970 L972,973 L973,974 L975,982 L982,995 L991,1006 L992,1006 L998,1012 L1004,1016 L1017,1022 L1027,1024 L1028,1025 L1034,1025 L1035,1026 L1053,1026 L1054,1025 L1060,1025 L1061,1024 L1064,1024 L1065,1023 L1068,1023 L1069,1022 L1074,1021 L1087,1014 L1092,1009 L1093,1009 L1102,999 L1108,987 L1108,984 L1107,983 L1101,983 L1100,982 L1092,982 L1091,981 L1079,980 L1074,988 L1062,997 L1060,997 L1056,999 L1052,999 L1051,1000 L1039,1000 L1038,999 L1034,999 L1022,994 L1011,984 L1005,974 L1005,972 L1003,968 L1003,965 L1002,964 L1002,958 L1003,957 L1112,957 L1113,955 L1113,941 L1112,940 L1111,926 L1110,925 L1108,915 L1101,901 L1096,894 L1083,882 L1069,875 L1059,873 L1058,872 L1054,872 L1053,871 L1033,871 L1032,872 Z M1003,929 L1004,928 L1005,922 L1008,916 L1018,905 L1024,901 L1032,898 L1035,898 L1036,897 L1050,897 L1051,898 L1057,899 L1063,902 L1073,911 L1079,921 L1080,928 L1081,929 L1081,933 L1080,934 L1004,934 L1003,933 Z M771,820 L771,1023 L804,1023 L804,880 L805,879 L808,881 L812,888 L815,891 L827,910 L839,926 L853,948 L865,964 L866,967 L869,970 L903,1021 L905,1023 L939,1023 L939,821 L938,820 L905,820 L905,961 L903,962 L889,941 L886,938 L876,922 L866,909 L852,887 L849,884 L836,864 L833,861 L807,822 L805,820 Z M658,804 L657,804 L652,809 L648,815 L642,821 L633,833 L598,874 L594,880 L589,885 L585,891 L557,924 L550,934 L540,945 L528,961 L523,966 L511,982 L506,987 L506,988 L502,992 L490,1008 L485,1013 L485,1014 L481,1018 L481,1019 L477,1023 L477,1024 L473,1028 L473,1029 L469,1033 L457,1049 L440,1069 L439,1069 L434,1064 L434,1063 L428,1057 L428,1056 L422,1050 L422,1049 L397,1020 L388,1008 L382,1002 L382,1001 L377,996 L372,989 L371,989 L371,994 L376,1000 L378,1004 L381,1007 L398,1032 L413,1051 L420,1062 L440,1088 L442,1092 L459,1114 L461,1118 L467,1125 L469,1129 L478,1140 L480,1144 L486,1151 L494,1163 L658,1163 Z" fill="#0d5c48"/>
  <path fill-rule="evenodd" d="M475,716 L463,721 L456,726 L450,732 L445,739 L443,743 L443,745 L441,748 L441,751 L439,756 L439,770 L440,771 L441,779 L443,782 L444,786 L452,797 L464,806 L474,810 L486,811 L487,812 L501,810 L512,805 L519,800 L525,794 L529,788 L532,782 L532,780 L534,776 L534,773 L535,772 L535,755 L534,754 L534,750 L533,749 L532,744 L526,734 L516,724 L506,718 L504,718 L500,716 L496,716 L495,715 L480,715 L479,716 Z M260,709 L260,1163 L368,1163 L369,1162 L369,994 L370,993 L370,987 L352,960 L347,951 L349,950 L351,952 L356,954 L386,974 L389,975 L400,983 L403,984 L420,996 L423,997 L428,1001 L431,1002 L440,1008 L494,952 L494,951 L498,947 L498,945 L287,734 L286,734 L261,709 Z" fill="#1aa878"/>
  <path fill-rule="evenodd" d="M427,835 L421,841 L421,843 L429,851 L429,852 L434,855 L452,873 L453,873 L457,877 L457,878 L458,878 L466,886 L467,886 L492,911 L493,911 L504,922 L504,923 L506,924 L507,926 L511,929 L513,929 L513,928 L515,927 L515,926 L525,916 L525,915 L540,899 L540,898 L547,891 L547,890 L556,882 L557,879 L567,868 L567,863 L566,862 L565,857 L560,847 L554,839 L544,832 L531,826 L527,826 L526,825 L517,824 L516,823 L511,823 L510,822 L502,822 L501,821 L478,821 L477,822 L464,822 L463,823 L451,824 L441,828 L438,828 L436,830 L434,830 Z" fill="#b0e3d6"/>
</svg>
